<svg width="25" height="25" viewBox="0 0 25 25" fill="none" xmlns="http://www.w3.org/2000/svg">
<path fill-rule="evenodd" clip-rule="evenodd" d="M16.9852 3.77492C17.7475 2.97561 19.0135 2.94565 19.8128 3.708L21.2601 5.08836C22.0594 5.85071 22.0894 7.11668 21.327 7.91599L9.37796 20.4443C9.11733 20.7176 8.78466 20.9115 8.41844 21.0036L5.06287 21.8474C4.34965 22.0268 3.69332 21.4008 3.83873 20.6799L4.52289 17.2882C4.59756 16.918 4.7755 16.5765 5.03613 16.3033L16.9852 3.77492ZM18.7776 4.79346L20.2248 6.17382C20.4247 6.3644 20.4321 6.6809 20.2416 6.88072L19.2344 7.93673L17.0635 5.86619L18.0706 4.81019C18.2612 4.61036 18.5777 4.60287 18.7776 4.79346ZM16.1681 6.80493L6.12158 17.3385C6.05643 17.4068 6.01194 17.4922 5.99327 17.5848L5.46587 20.1994L8.05262 19.5489C8.14417 19.5259 8.22734 19.4774 8.2925 19.4091L18.3391 8.87547L16.1681 6.80493Z" fill="#97A1AF"/>
</svg>
