<svg width="25" height="24" viewBox="0 0 25 24" fill="currentColor" xmlns="http://www.w3.org/2000/svg">
<path d="M16.8223 16.1238C17.136 15.8386 17.1476 15.3492 16.8479 15.0494L13.5984 11.8V6.75C13.5984 6.33579 13.2627 6 12.8484 6C12.4342 6 12.0984 6.33579 12.0984 6.75V11.9858C12.0984 12.251 12.2038 12.5054 12.3913 12.6929L15.7979 16.0994C16.0781 16.3796 16.529 16.3904 16.8223 16.1238Z" fill="currentColor"/>
<path d="M12.8984 22C11.5318 22 10.2401 21.7375 9.02344 21.2125C7.80677 20.6875 6.74427 19.9708 5.83594 19.0625C4.9276 18.1542 4.21094 17.0917 3.68594 15.875C3.16094 14.6583 2.89844 13.3583 2.89844 11.975C2.89844 10.6083 3.16094 9.31667 3.68594 8.1C4.21094 6.88333 4.9276 5.825 5.83594 4.925C6.74427 4.025 7.80677 3.3125 9.02344 2.7875C10.2401 2.2625 11.5401 2 12.9234 2C14.2901 2 15.5818 2.2625 16.7984 2.7875C18.0151 3.3125 19.0734 4.025 19.9734 4.925C20.8734 5.825 21.5859 6.88333 22.1109 8.1C22.6359 9.31667 22.8984 10.6167 22.8984 12C22.8984 13.3667 22.6359 14.6583 22.1109 15.875C21.5859 17.0917 20.8734 18.1542 19.9734 19.0625C19.0734 19.9708 18.0151 20.6875 16.7984 21.2125C15.5818 21.7375 14.2818 22 12.8984 22ZM12.8984 20.5C15.2651 20.5 17.2734 19.6708 18.9234 18.0125C20.5734 16.3542 21.3984 14.35 21.3984 12C21.3984 9.63333 20.5734 7.625 18.9234 5.975C17.2734 4.325 15.2651 3.5 12.8984 3.5C10.5484 3.5 8.54427 4.325 6.88594 5.975C5.2276 7.625 4.39844 9.63333 4.39844 12C4.39844 14.35 5.2276 16.3542 6.88594 18.0125C8.54427 19.6708 10.5484 20.5 12.8984 20.5Z" fill="currentColor"/>
</svg>
