<svg width="25" height="24" viewBox="0 0 25 24" fill="currentColor" xmlns="http://www.w3.org/2000/svg">
<path fill-rule="evenodd" clip-rule="evenodd" d="M16.8984 8C16.8984 10.2091 15.1076 12 12.8984 12C10.6893 12 8.89844 10.2091 8.89844 8C8.89844 5.79086 10.6893 4 12.8984 4C15.1076 4 16.8984 5.79086 16.8984 8ZM15.3984 8C15.3984 9.38071 14.2792 10.5 12.8984 10.5C11.5177 10.5 10.3984 9.38071 10.3984 8C10.3984 6.61929 11.5177 5.5 12.8984 5.5C14.2792 5.5 15.3984 6.61929 15.3984 8Z" fill="currentColor"/>
<path fill-rule="evenodd" clip-rule="evenodd" d="M4.89844 17.772V20H20.8984V17.772C20.8984 16.1046 19.8641 14.6121 18.3029 14.0267L18.1653 13.9751C14.7695 12.7017 11.0274 12.7017 7.63159 13.9751L7.49394 14.0267C5.93273 14.6121 4.89844 16.1046 4.89844 17.772ZM8.15827 15.3796C11.2145 14.2335 14.5824 14.2335 17.6386 15.3796L17.7762 15.4312C18.752 15.7971 19.3984 16.7299 19.3984 17.772V18.5H6.39844V17.772C6.39844 16.7299 7.04487 15.7971 8.02063 15.4312L8.15827 15.3796Z" fill="currentColor"/>
</svg>
