<svg width="25" height="24" viewBox="0 0 25 24" fill="none" xmlns="http://www.w3.org/2000/svg">
<path d="M14.8358 20.325C14.8358 19.9522 14.5336 19.65 14.1608 19.65H5.18876C4.91262 19.65 4.68876 19.4261 4.68876 19.15V4.85C4.68876 4.57386 4.91262 4.35 5.18876 4.35H14.1608C14.5336 4.35 14.8358 4.04779 14.8358 3.675C14.8358 3.30221 14.5336 3 14.1608 3H5.36524C4.26067 3 3.36523 3.89543 3.36523 5V19C3.36523 20.1046 4.26066 21 5.36523 21H14.1608C14.5336 21 14.8358 20.6978 14.8358 20.325ZM13.2599 11.64C12.912 11.64 12.6299 11.9221 12.6299 12.27C12.6299 12.6179 12.912 12.9 13.2599 12.9H18.8064L16.635 15.1148C16.3708 15.3843 16.3708 15.8157 16.635 16.0852C16.9068 16.3624 17.3531 16.3624 17.6248 16.0852L20.6789 12.9701C21.0601 12.5812 21.0601 11.9588 20.6789 11.5699L17.6248 8.4548C17.3531 8.17764 16.9068 8.17764 16.635 8.4548C16.3708 8.72431 16.3708 9.15569 16.635 9.4252L18.8064 11.64H13.2599Z" fill="#141C24"/>
</svg>
